<?xml version="1.0" encoding="utf-8"?>
<!-- Generator: Adobe Illustrator 22.1.0, SVG Export Plug-In . SVG Version: 6.00 Build 0)  -->
<svg version="1.1"
	 id="svg11543" inkscape:version="0.92.2 5c3e80d, 2017-08-06" sodipodi:docname="BefacoPush_1.svg" xmlns:cc="http://creativecommons.org/ns#" xmlns:dc="http://purl.org/dc/elements/1.1/" xmlns:inkscape="http://www.inkscape.org/namespaces/inkscape" xmlns:rdf="http://www.w3.org/1999/02/22-rdf-syntax-ns#" xmlns:sodipodi="http://sodipodi.sourceforge.net/DTD/sodipodi-0.dtd" xmlns:svg="http://www.w3.org/2000/svg"
	 xmlns="http://www.w3.org/2000/svg" xmlns:xlink="http://www.w3.org/1999/xlink" x="0px" y="0px" viewBox="0 0 28 28"
	 style="enable-background:new 0 0 28 28;" xml:space="preserve">
<style type="text/css">
	.st0{fill:#E7E7E7;stroke:#909290;stroke-width:1.1929;}
	.st1{fill:#276BC4;stroke:#1C4D8C;stroke-width:1.5905;}
</style>
<sodipodi:namedview  bordercolor="#666666" borderopacity="1.0" fit-margin-bottom="0" fit-margin-left="0" fit-margin-right="0" fit-margin-top="0" id="base" inkscape:current-layer="g6703" inkscape:cx="-17.941458" inkscape:cy="4.1420904" inkscape:document-units="mm" inkscape:pageopacity="0.0" inkscape:pageshadow="2" inkscape:window-height="1422" inkscape:window-maximized="0" inkscape:window-width="2560" inkscape:window-x="0" inkscape:window-y="18" inkscape:zoom="7.9195959" pagecolor="#ffffff" showgrid="false" units="px">
	</sodipodi:namedview>
<g id="layer1" transform="translate(-33.337496,-58.194645)" inkscape:groupmode="layer" inkscape:label="Layer 1">
	<g id="g6703" transform="matrix(0.22180737,0,0,-0.22180737,-187.44188,317.8558)">
		<path id="path4505" inkscape:connector-curvature="0" class="st0" d="M1058.4,1046.7c-33.5,0-60.8,27.3-60.8,60.9
			c0,33.5,27.3,60.8,60.8,60.8c33.6,0,60.9-27.3,60.9-60.8C1119.3,1074,1092,1046.7,1058.4,1046.7"/>
		<path id="path6735" inkscape:connector-curvature="0" class="st0" d="M1058.7,1056.4c-28.2,0-51.2,23-51.2,51.2
			c0,28.2,23,51.2,51.2,51.2c28.2,0,51.2-23,51.2-51.2C1109.8,1079.3,1086.9,1056.4,1058.7,1056.4"/>
		<path id="path6743" inkscape:connector-curvature="0" class="st1" d="M1058.5,1145.4c20.9,0,37.8-16.9,37.8-37.8
			c0-20.9-16.9-37.8-37.8-37.8c-20.9,0-37.8,16.9-37.8,37.8C1020.7,1128.4,1037.6,1145.4,1058.5,1145.4"/>
	</g>
</g>
</svg>
